<?xml version="1.0" encoding="utf-8"?>
<svg xmlns="http://www.w3.org/2000/svg" xmlns:xlink="http://www.w3.org/1999/xlink" width="1400" height="500" viewBox="0 0 5600 2000">
<defs>
  <clipPath id="clip130">
    <rect x="0" y="0" width="5600" height="2000"/>
  </clipPath>
</defs>
<path clip-path="url(#clip130)" d="
M0 2000 L5600 2000 L5600 0 L0 0  Z
  " fill="#ffffff" fill-rule="evenodd" fill-opacity="1"/>
<defs>
  <clipPath id="clip131">
    <rect x="1120" y="0" width="3921" height="2000"/>
  </clipPath>
</defs>
<path clip-path="url(#clip130)" d="
M188.112 1898.49 L2752.76 1898.49 L2752.76 47.2441 L188.112 47.2441  Z
  " fill="#ffffff" fill-rule="evenodd" fill-opacity="1"/>
<defs>
  <clipPath id="clip132">
    <rect x="188" y="47" width="2566" height="1852"/>
  </clipPath>
</defs>
<polyline clip-path="url(#clip132)" style="stroke:#000000; stroke-linecap:butt; stroke-linejoin:round; stroke-width:2; stroke-opacity:0.1; fill:none" points="
  344.073,1898.49 344.073,47.2441 
  "/>
<polyline clip-path="url(#clip132)" style="stroke:#000000; stroke-linecap:butt; stroke-linejoin:round; stroke-width:2; stroke-opacity:0.1; fill:none" points="
  850.847,1898.49 850.847,47.2441 
  "/>
<polyline clip-path="url(#clip132)" style="stroke:#000000; stroke-linecap:butt; stroke-linejoin:round; stroke-width:2; stroke-opacity:0.1; fill:none" points="
  1357.62,1898.49 1357.62,47.2441 
  "/>
<polyline clip-path="url(#clip132)" style="stroke:#000000; stroke-linecap:butt; stroke-linejoin:round; stroke-width:2; stroke-opacity:0.1; fill:none" points="
  1864.4,1898.49 1864.4,47.2441 
  "/>
<polyline clip-path="url(#clip132)" style="stroke:#000000; stroke-linecap:butt; stroke-linejoin:round; stroke-width:2; stroke-opacity:0.1; fill:none" points="
  2371.17,1898.49 2371.17,47.2441 
  "/>
<polyline clip-path="url(#clip130)" style="stroke:#000000; stroke-linecap:butt; stroke-linejoin:round; stroke-width:4; stroke-opacity:1; fill:none" points="
  188.112,1898.49 2752.76,1898.49 
  "/>
<polyline clip-path="url(#clip130)" style="stroke:#000000; stroke-linecap:butt; stroke-linejoin:round; stroke-width:4; stroke-opacity:1; fill:none" points="
  344.073,1898.49 344.073,1876.28 
  "/>
<polyline clip-path="url(#clip130)" style="stroke:#000000; stroke-linecap:butt; stroke-linejoin:round; stroke-width:4; stroke-opacity:1; fill:none" points="
  850.847,1898.49 850.847,1876.28 
  "/>
<polyline clip-path="url(#clip130)" style="stroke:#000000; stroke-linecap:butt; stroke-linejoin:round; stroke-width:4; stroke-opacity:1; fill:none" points="
  1357.62,1898.49 1357.62,1876.28 
  "/>
<polyline clip-path="url(#clip130)" style="stroke:#000000; stroke-linecap:butt; stroke-linejoin:round; stroke-width:4; stroke-opacity:1; fill:none" points="
  1864.4,1898.49 1864.4,1876.28 
  "/>
<polyline clip-path="url(#clip130)" style="stroke:#000000; stroke-linecap:butt; stroke-linejoin:round; stroke-width:4; stroke-opacity:1; fill:none" points="
  2371.17,1898.49 2371.17,1876.28 
  "/>
<path clip-path="url(#clip130)" d="M290.601 1967.94 L320.276 1967.94 L320.276 1971.87 L290.601 1971.87 L290.601 1967.94 Z" fill="#000000" fill-rule="evenodd" fill-opacity="1" /><path clip-path="url(#clip130)" d="M331.179 1980.83 L338.818 1980.83 L338.818 1954.46 L330.508 1956.13 L330.508 1951.87 L338.772 1950.21 L343.448 1950.21 L343.448 1980.83 L351.086 1980.83 L351.086 1984.77 L331.179 1984.77 L331.179 1980.83 Z" fill="#000000" fill-rule="evenodd" fill-opacity="1" /><path clip-path="url(#clip130)" d="M360.531 1978.89 L365.415 1978.89 L365.415 1984.77 L360.531 1984.77 L360.531 1978.89 Z" fill="#000000" fill-rule="evenodd" fill-opacity="1" /><path clip-path="url(#clip130)" d="M385.6 1953.28 Q381.989 1953.28 380.16 1956.85 Q378.355 1960.39 378.355 1967.52 Q378.355 1974.63 380.16 1978.19 Q381.989 1981.73 385.6 1981.73 Q389.234 1981.73 391.04 1978.19 Q392.869 1974.63 392.869 1967.52 Q392.869 1960.39 391.04 1956.85 Q389.234 1953.28 385.6 1953.28 M385.6 1949.58 Q391.41 1949.58 394.466 1954.19 Q397.544 1958.77 397.544 1967.52 Q397.544 1976.25 394.466 1980.85 Q391.41 1985.44 385.6 1985.44 Q379.79 1985.44 376.711 1980.85 Q373.656 1976.25 373.656 1967.52 Q373.656 1958.77 376.711 1954.19 Q379.79 1949.58 385.6 1949.58 Z" fill="#000000" fill-rule="evenodd" fill-opacity="1" /><path clip-path="url(#clip130)" d="M797.873 1967.94 L827.548 1967.94 L827.548 1971.87 L797.873 1971.87 L797.873 1967.94 Z" fill="#000000" fill-rule="evenodd" fill-opacity="1" /><path clip-path="url(#clip130)" d="M847.641 1953.28 Q844.03 1953.28 842.201 1956.85 Q840.396 1960.39 840.396 1967.52 Q840.396 1974.63 842.201 1978.19 Q844.03 1981.73 847.641 1981.73 Q851.275 1981.73 853.081 1978.19 Q854.909 1974.63 854.909 1967.52 Q854.909 1960.39 853.081 1956.85 Q851.275 1953.28 847.641 1953.28 M847.641 1949.58 Q853.451 1949.58 856.507 1954.19 Q859.585 1958.77 859.585 1967.52 Q859.585 1976.25 856.507 1980.85 Q853.451 1985.44 847.641 1985.44 Q841.831 1985.44 838.752 1980.85 Q835.697 1976.25 835.697 1967.52 Q835.697 1958.77 838.752 1954.19 Q841.831 1949.58 847.641 1949.58 Z" fill="#000000" fill-rule="evenodd" fill-opacity="1" /><path clip-path="url(#clip130)" d="M867.803 1978.89 L872.687 1978.89 L872.687 1984.77 L867.803 1984.77 L867.803 1978.89 Z" fill="#000000" fill-rule="evenodd" fill-opacity="1" /><path clip-path="url(#clip130)" d="M882.918 1950.21 L901.275 1950.21 L901.275 1954.14 L887.201 1954.14 L887.201 1962.61 Q888.219 1962.27 889.238 1962.1 Q890.256 1961.92 891.275 1961.92 Q897.062 1961.92 900.442 1965.09 Q903.821 1968.26 903.821 1973.68 Q903.821 1979.26 900.349 1982.36 Q896.877 1985.44 890.557 1985.44 Q888.381 1985.44 886.113 1985.07 Q883.868 1984.7 881.46 1983.96 L881.46 1979.26 Q883.543 1980.39 885.766 1980.95 Q887.988 1981.5 890.465 1981.5 Q894.469 1981.5 896.807 1979.4 Q899.145 1977.29 899.145 1973.68 Q899.145 1970.07 896.807 1967.96 Q894.469 1965.85 890.465 1965.85 Q888.59 1965.85 886.715 1966.27 Q884.863 1966.69 882.918 1967.57 L882.918 1950.21 Z" fill="#000000" fill-rule="evenodd" fill-opacity="1" /><path clip-path="url(#clip130)" d="M1335.01 1953.28 Q1331.39 1953.28 1329.57 1956.85 Q1327.76 1960.39 1327.76 1967.52 Q1327.76 1974.63 1329.57 1978.19 Q1331.39 1981.73 1335.01 1981.73 Q1338.64 1981.73 1340.45 1978.19 Q1342.27 1974.63 1342.27 1967.52 Q1342.27 1960.39 1340.45 1956.85 Q1338.64 1953.28 1335.01 1953.28 M1335.01 1949.58 Q1340.82 1949.58 1343.87 1954.19 Q1346.95 1958.77 1346.95 1967.52 Q1346.95 1976.25 1343.87 1980.85 Q1340.82 1985.44 1335.01 1985.44 Q1329.2 1985.44 1326.12 1980.85 Q1323.06 1976.25 1323.06 1967.52 Q1323.06 1958.77 1326.12 1954.19 Q1329.2 1949.58 1335.01 1949.58 Z" fill="#000000" fill-rule="evenodd" fill-opacity="1" /><path clip-path="url(#clip130)" d="M1355.17 1978.89 L1360.05 1978.89 L1360.05 1984.77 L1355.17 1984.77 L1355.17 1978.89 Z" fill="#000000" fill-rule="evenodd" fill-opacity="1" /><path clip-path="url(#clip130)" d="M1380.24 1953.28 Q1376.63 1953.28 1374.8 1956.85 Q1372.99 1960.39 1372.99 1967.52 Q1372.99 1974.63 1374.8 1978.19 Q1376.63 1981.73 1380.24 1981.73 Q1383.87 1981.73 1385.68 1978.19 Q1387.51 1974.63 1387.51 1967.52 Q1387.51 1960.39 1385.68 1956.85 Q1383.87 1953.28 1380.24 1953.28 M1380.24 1949.58 Q1386.05 1949.58 1389.1 1954.19 Q1392.18 1958.77 1392.18 1967.52 Q1392.18 1976.25 1389.1 1980.85 Q1386.05 1985.44 1380.24 1985.44 Q1374.43 1985.44 1371.35 1980.85 Q1368.29 1976.25 1368.29 1967.52 Q1368.29 1958.77 1371.35 1954.19 Q1374.43 1949.58 1380.24 1949.58 Z" fill="#000000" fill-rule="evenodd" fill-opacity="1" /><path clip-path="url(#clip130)" d="M1842.28 1953.28 Q1838.67 1953.28 1836.84 1956.85 Q1835.03 1960.39 1835.03 1967.52 Q1835.03 1974.63 1836.84 1978.19 Q1838.67 1981.73 1842.28 1981.73 Q1845.91 1981.73 1847.72 1978.19 Q1849.55 1974.63 1849.55 1967.52 Q1849.55 1960.39 1847.72 1956.85 Q1845.91 1953.28 1842.28 1953.28 M1842.28 1949.58 Q1848.09 1949.58 1851.14 1954.19 Q1854.22 1958.77 1854.22 1967.52 Q1854.22 1976.25 1851.14 1980.85 Q1848.09 1985.44 1842.28 1985.44 Q1836.47 1985.44 1833.39 1980.85 Q1830.33 1976.25 1830.33 1967.52 Q1830.33 1958.77 1833.39 1954.19 Q1836.47 1949.58 1842.28 1949.58 Z" fill="#000000" fill-rule="evenodd" fill-opacity="1" /><path clip-path="url(#clip130)" d="M1862.44 1978.89 L1867.32 1978.89 L1867.32 1984.77 L1862.44 1984.77 L1862.44 1978.89 Z" fill="#000000" fill-rule="evenodd" fill-opacity="1" /><path clip-path="url(#clip130)" d="M1877.56 1950.21 L1895.91 1950.21 L1895.91 1954.14 L1881.84 1954.14 L1881.84 1962.61 Q1882.86 1962.27 1883.87 1962.1 Q1884.89 1961.92 1885.91 1961.92 Q1891.7 1961.92 1895.08 1965.09 Q1898.46 1968.26 1898.46 1973.68 Q1898.46 1979.26 1894.99 1982.36 Q1891.51 1985.44 1885.19 1985.44 Q1883.02 1985.44 1880.75 1985.07 Q1878.5 1984.7 1876.1 1983.96 L1876.1 1979.26 Q1878.18 1980.39 1880.4 1980.95 Q1882.62 1981.5 1885.1 1981.5 Q1889.11 1981.5 1891.44 1979.4 Q1893.78 1977.29 1893.78 1973.68 Q1893.78 1970.07 1891.44 1967.96 Q1889.11 1965.85 1885.1 1965.85 Q1883.23 1965.85 1881.35 1966.27 Q1879.5 1966.69 1877.56 1967.57 L1877.56 1950.21 Z" fill="#000000" fill-rule="evenodd" fill-opacity="1" /><path clip-path="url(#clip130)" d="M2338.32 1980.83 L2345.96 1980.83 L2345.96 1954.46 L2337.65 1956.13 L2337.65 1951.87 L2345.92 1950.21 L2350.59 1950.21 L2350.59 1980.83 L2358.23 1980.83 L2358.23 1984.77 L2338.32 1984.77 L2338.32 1980.83 Z" fill="#000000" fill-rule="evenodd" fill-opacity="1" /><path clip-path="url(#clip130)" d="M2367.67 1978.89 L2372.56 1978.89 L2372.56 1984.77 L2367.67 1984.77 L2367.67 1978.89 Z" fill="#000000" fill-rule="evenodd" fill-opacity="1" /><path clip-path="url(#clip130)" d="M2392.74 1953.28 Q2389.13 1953.28 2387.3 1956.85 Q2385.5 1960.39 2385.5 1967.52 Q2385.5 1974.63 2387.3 1978.19 Q2389.13 1981.73 2392.74 1981.73 Q2396.38 1981.73 2398.18 1978.19 Q2400.01 1974.63 2400.01 1967.52 Q2400.01 1960.39 2398.18 1956.85 Q2396.38 1953.28 2392.74 1953.28 M2392.74 1949.58 Q2398.55 1949.58 2401.61 1954.19 Q2404.69 1958.77 2404.69 1967.52 Q2404.69 1976.25 2401.61 1980.85 Q2398.55 1985.44 2392.74 1985.44 Q2386.93 1985.44 2383.85 1980.85 Q2380.8 1976.25 2380.8 1967.52 Q2380.8 1958.77 2383.85 1954.19 Q2386.93 1949.58 2392.74 1949.58 Z" fill="#000000" fill-rule="evenodd" fill-opacity="1" /><polyline clip-path="url(#clip132)" style="stroke:#000000; stroke-linecap:butt; stroke-linejoin:round; stroke-width:2; stroke-opacity:0.1; fill:none" points="
  188.112,1846.1 2752.76,1846.1 
  "/>
<polyline clip-path="url(#clip132)" style="stroke:#000000; stroke-linecap:butt; stroke-linejoin:round; stroke-width:2; stroke-opacity:0.1; fill:none" points="
  188.112,1306.22 2752.76,1306.22 
  "/>
<polyline clip-path="url(#clip132)" style="stroke:#000000; stroke-linecap:butt; stroke-linejoin:round; stroke-width:2; stroke-opacity:0.1; fill:none" points="
  188.112,766.35 2752.76,766.35 
  "/>
<polyline clip-path="url(#clip132)" style="stroke:#000000; stroke-linecap:butt; stroke-linejoin:round; stroke-width:2; stroke-opacity:0.1; fill:none" points="
  188.112,226.475 2752.76,226.475 
  "/>
<polyline clip-path="url(#clip130)" style="stroke:#000000; stroke-linecap:butt; stroke-linejoin:round; stroke-width:4; stroke-opacity:1; fill:none" points="
  188.112,1898.49 188.112,47.2441 
  "/>
<polyline clip-path="url(#clip130)" style="stroke:#000000; stroke-linecap:butt; stroke-linejoin:round; stroke-width:4; stroke-opacity:1; fill:none" points="
  188.112,1846.1 218.888,1846.1 
  "/>
<polyline clip-path="url(#clip130)" style="stroke:#000000; stroke-linecap:butt; stroke-linejoin:round; stroke-width:4; stroke-opacity:1; fill:none" points="
  188.112,1306.22 218.888,1306.22 
  "/>
<polyline clip-path="url(#clip130)" style="stroke:#000000; stroke-linecap:butt; stroke-linejoin:round; stroke-width:4; stroke-opacity:1; fill:none" points="
  188.112,766.35 218.888,766.35 
  "/>
<polyline clip-path="url(#clip130)" style="stroke:#000000; stroke-linecap:butt; stroke-linejoin:round; stroke-width:4; stroke-opacity:1; fill:none" points="
  188.112,226.475 218.888,226.475 
  "/>
<path clip-path="url(#clip130)" d="M46.9365 1831.9 Q43.3254 1831.9 41.4967 1835.46 Q39.6912 1839 39.6912 1846.13 Q39.6912 1853.24 41.4967 1856.81 Q43.3254 1860.35 46.9365 1860.35 Q50.5707 1860.35 52.3763 1856.81 Q54.205 1853.24 54.205 1846.13 Q54.205 1839 52.3763 1835.46 Q50.5707 1831.9 46.9365 1831.9 M46.9365 1828.19 Q52.7467 1828.19 55.8022 1832.8 Q58.8809 1837.38 58.8809 1846.13 Q58.8809 1854.86 55.8022 1859.47 Q52.7467 1864.05 46.9365 1864.05 Q41.1264 1864.05 38.0477 1859.47 Q34.9921 1854.86 34.9921 1846.13 Q34.9921 1837.38 38.0477 1832.8 Q41.1264 1828.19 46.9365 1828.19 Z" fill="#000000" fill-rule="evenodd" fill-opacity="1" /><path clip-path="url(#clip130)" d="M67.0984 1857.5 L71.9827 1857.5 L71.9827 1863.38 L67.0984 1863.38 L67.0984 1857.5 Z" fill="#000000" fill-rule="evenodd" fill-opacity="1" /><path clip-path="url(#clip130)" d="M92.1677 1831.9 Q88.5567 1831.9 86.728 1835.46 Q84.9224 1839 84.9224 1846.13 Q84.9224 1853.24 86.728 1856.81 Q88.5567 1860.35 92.1677 1860.35 Q95.802 1860.35 97.6075 1856.81 Q99.4362 1853.24 99.4362 1846.13 Q99.4362 1839 97.6075 1835.46 Q95.802 1831.9 92.1677 1831.9 M92.1677 1828.19 Q97.9779 1828.19 101.033 1832.8 Q104.112 1837.38 104.112 1846.13 Q104.112 1854.86 101.033 1859.47 Q97.9779 1864.05 92.1677 1864.05 Q86.3576 1864.05 83.2789 1859.47 Q80.2234 1854.86 80.2234 1846.13 Q80.2234 1837.38 83.2789 1832.8 Q86.3576 1828.19 92.1677 1828.19 Z" fill="#000000" fill-rule="evenodd" fill-opacity="1" /><path clip-path="url(#clip130)" d="M47.9319 1292.02 Q44.3208 1292.02 42.4921 1295.59 Q40.6865 1299.13 40.6865 1306.26 Q40.6865 1313.37 42.4921 1316.93 Q44.3208 1320.47 47.9319 1320.47 Q51.5661 1320.47 53.3717 1316.93 Q55.2004 1313.37 55.2004 1306.26 Q55.2004 1299.13 53.3717 1295.59 Q51.5661 1292.02 47.9319 1292.02 M47.9319 1288.32 Q53.742 1288.32 56.7976 1292.93 Q59.8763 1297.51 59.8763 1306.26 Q59.8763 1314.99 56.7976 1319.59 Q53.742 1324.18 47.9319 1324.18 Q42.1217 1324.18 39.043 1319.59 Q35.9875 1314.99 35.9875 1306.26 Q35.9875 1297.51 39.043 1292.93 Q42.1217 1288.32 47.9319 1288.32 Z" fill="#000000" fill-rule="evenodd" fill-opacity="1" /><path clip-path="url(#clip130)" d="M68.0938 1317.63 L72.978 1317.63 L72.978 1323.5 L68.0938 1323.5 L68.0938 1317.63 Z" fill="#000000" fill-rule="evenodd" fill-opacity="1" /><path clip-path="url(#clip130)" d="M83.2095 1288.94 L101.566 1288.94 L101.566 1292.88 L87.4918 1292.88 L87.4918 1301.35 Q88.5104 1301 89.5289 1300.84 Q90.5474 1300.66 91.5659 1300.66 Q97.3529 1300.66 100.733 1303.83 Q104.112 1307 104.112 1312.42 Q104.112 1318 100.64 1321.1 Q97.1677 1324.18 90.8483 1324.18 Q88.6724 1324.18 86.4039 1323.81 Q84.1585 1323.44 81.7511 1322.69 L81.7511 1318 Q83.8345 1319.13 86.0567 1319.69 Q88.2789 1320.24 90.7557 1320.24 Q94.7603 1320.24 97.0983 1318.13 Q99.4362 1316.03 99.4362 1312.42 Q99.4362 1308.81 97.0983 1306.7 Q94.7603 1304.59 90.7557 1304.59 Q88.8807 1304.59 87.0057 1305.01 Q85.1539 1305.43 83.2095 1306.31 L83.2095 1288.94 Z" fill="#000000" fill-rule="evenodd" fill-opacity="1" /><path clip-path="url(#clip130)" d="M37.7467 779.694 L45.3856 779.694 L45.3856 753.329 L37.0754 754.996 L37.0754 750.736 L45.3393 749.07 L50.0152 749.07 L50.0152 779.694 L57.654 779.694 L57.654 783.63 L37.7467 783.63 L37.7467 779.694 Z" fill="#000000" fill-rule="evenodd" fill-opacity="1" /><path clip-path="url(#clip130)" d="M67.0984 777.75 L71.9827 777.75 L71.9827 783.63 L67.0984 783.63 L67.0984 777.75 Z" fill="#000000" fill-rule="evenodd" fill-opacity="1" /><path clip-path="url(#clip130)" d="M92.1677 752.148 Q88.5567 752.148 86.728 755.713 Q84.9224 759.255 84.9224 766.384 Q84.9224 773.491 86.728 777.056 Q88.5567 780.597 92.1677 780.597 Q95.802 780.597 97.6075 777.056 Q99.4362 773.491 99.4362 766.384 Q99.4362 759.255 97.6075 755.713 Q95.802 752.148 92.1677 752.148 M92.1677 748.445 Q97.9779 748.445 101.033 753.051 Q104.112 757.634 104.112 766.384 Q104.112 775.111 101.033 779.718 Q97.9779 784.301 92.1677 784.301 Q86.3576 784.301 83.2789 779.718 Q80.2234 775.111 80.2234 766.384 Q80.2234 757.634 83.2789 753.051 Q86.3576 748.445 92.1677 748.445 Z" fill="#000000" fill-rule="evenodd" fill-opacity="1" /><path clip-path="url(#clip130)" d="M38.7421 239.819 L46.381 239.819 L46.381 213.454 L38.0708 215.12 L38.0708 210.861 L46.3347 209.195 L51.0106 209.195 L51.0106 239.819 L58.6494 239.819 L58.6494 243.755 L38.7421 243.755 L38.7421 239.819 Z" fill="#000000" fill-rule="evenodd" fill-opacity="1" /><path clip-path="url(#clip130)" d="M68.0938 237.875 L72.978 237.875 L72.978 243.755 L68.0938 243.755 L68.0938 237.875 Z" fill="#000000" fill-rule="evenodd" fill-opacity="1" /><path clip-path="url(#clip130)" d="M83.2095 209.195 L101.566 209.195 L101.566 213.13 L87.4918 213.13 L87.4918 221.602 Q88.5104 221.255 89.5289 221.093 Q90.5474 220.907 91.5659 220.907 Q97.3529 220.907 100.733 224.079 Q104.112 227.25 104.112 232.667 Q104.112 238.245 100.64 241.347 Q97.1677 244.426 90.8483 244.426 Q88.6724 244.426 86.4039 244.055 Q84.1585 243.685 81.7511 242.944 L81.7511 238.245 Q83.8345 239.38 86.0567 239.935 Q88.2789 240.491 90.7557 240.491 Q94.7603 240.491 97.0983 238.384 Q99.4362 236.278 99.4362 232.667 Q99.4362 229.056 97.0983 226.949 Q94.7603 224.843 90.7557 224.843 Q88.8807 224.843 87.0057 225.259 Q85.1539 225.676 83.2095 226.556 L83.2095 209.195 Z" fill="#000000" fill-rule="evenodd" fill-opacity="1" /><polyline clip-path="url(#clip132)" style="stroke:#ff0000; stroke-linecap:butt; stroke-linejoin:round; stroke-width:16; stroke-opacity:1; fill:none" points="
  260.696,1846.1 272.855,1846.1 285.013,1846.1 297.171,1846.09 309.329,1846.06 321.487,1846.02 333.645,1845.96 345.804,1845.9 357.962,1845.86 370.12,1845.81 
  382.278,1845.68 394.436,1845.41 406.594,1845 418.753,1844.43 430.911,1843.71 443.069,1842.81 455.227,1841.83 467.385,1840.98 479.543,1840.43 491.702,1840.08 
  503.86,1839.65 516.018,1838.94 528.176,1838.03 540.334,1837.05 552.492,1835.97 564.651,1834.57 576.809,1832.69 588.967,1830.23 601.125,1827.21 613.283,1823.72 
  625.441,1819.96 637.6,1816.08 649.758,1812.13 661.916,1807.99 674.074,1803.24 686.232,1797.26 698.39,1789.69 710.549,1780.75 722.707,1771 734.865,1760.94 
  747.023,1750.69 759.181,1739.82 771.339,1727.67 783.498,1714.01 795.656,1699.09 807.814,1682.95 819.972,1665 832.13,1644.72 844.288,1622.52 856.447,1599.58 
  868.605,1576.39 880.763,1552.02 892.921,1524.99 905.079,1494.45 917.237,1460.34 929.396,1423.24 941.554,1384.6 953.712,1346.57 965.87,1310.63 978.028,1275.76 
  990.186,1238.8 1002.34,1197.23 1014.5,1151.61 1026.66,1105.11 1038.82,1060.44 1050.98,1017.12 1063.14,971.821 1075.29,922.074 1087.45,869.255 1099.61,817.064 
  1111.77,767.092 1123.93,717.447 1136.08,666.369 1148.24,615.499 1160.4,568.085 1172.56,525.013 1184.72,484.222 1196.88,443.45 1209.03,402.425 1221.19,362.542 
  1233.35,324.81 1245.51,288.621 1257.67,253.559 1269.82,222.026 1281.98,197.6 1294.14,180.122 1306.3,164.92 1318.46,147.907 1330.62,129.553 1342.77,113.523 
  1354.93,103.155 1367.09,99.6379 1379.25,102.793 1391.41,113.031 1403.56,131.334 1415.72,156.782 1427.88,186.052 1440.04,216.747 1452.2,249.745 1464.35,286.887 
  1476.51,327.419 1488.67,368.118 1500.83,406.585 1512.99,443.26 1525.15,480.405 1537.3,520.326 1549.46,564.232 1561.62,611.343 1573.78,659.052 1585.94,704.943 
  1598.09,748.937 1610.25,793.098 1622.41,839.301 1634.57,887.573 1646.73,936.977 1658.89,987.186 1671.04,1038.3 1683.2,1089.56 1695.36,1139 1707.52,1184.53 
  1719.68,1225.65 1731.83,1264.12 1743.99,1302.61 1756.15,1342.43 1768.31,1382.66 1780.47,1421.08 1792.63,1455.92 1804.78,1486.83 1816.94,1514.87 1829.1,1541.69 
  1841.26,1568.13 1853.42,1593.39 1865.57,1615.78 1877.73,1634.86 1889.89,1652.41 1902.05,1670.96 1914.21,1691.25 1926.37,1711.56 1938.52,1729.26 1950.68,1742.99 
  1962.84,1753.42 1975,1762.14 1987.16,1770.15 1999.31,1777.79 2011.47,1785.23 2023.63,1792.45 2035.79,1799.02 2047.95,1804.41 2060.11,1808.62 2072.26,1812.33 
  2084.42,1816.31 2096.58,1820.71 2108.74,1824.91 2120.9,1828.19 2133.05,1830.45 2145.21,1832.21 2157.37,1834.07 2169.53,1836.18 2181.69,1838.23 2193.84,1839.87 
  2206,1841.01 2218.16,1841.81 2230.32,1842.42 2242.48,1842.89 2254.64,1843.26 2266.79,1843.58 2278.95,1843.94 2291.11,1844.35 2303.27,1844.72 2315.43,1844.98 
  2327.58,1845.12 2339.74,1845.21 2351.9,1845.31 2364.06,1845.4 2376.22,1845.46 2388.38,1845.49 2400.53,1845.55 2412.69,1845.66 2424.85,1845.81 2437.01,1845.94 
  2449.17,1846.03 2461.32,1846.08 2473.48,1846.09 2485.64,1846.1 2497.8,1846.1 2509.96,1846.1 2522.12,1846.1 2534.27,1846.09 2546.43,1846.06 2558.59,1846.02 
  2570.75,1845.96 2582.91,1845.92 2595.06,1845.92 2607.22,1845.96 2619.38,1846.02 2631.54,1846.06 2643.7,1846.09 2655.86,1846.1 2668.01,1846.1 2680.17,1846.1 
  
  "/>
<path clip-path="url(#clip130)" d="
M2988.11 1898.49 L5552.76 1898.49 L5552.76 47.2441 L2988.11 47.2441  Z
  " fill="#ffffff" fill-rule="evenodd" fill-opacity="1"/>
<defs>
  <clipPath id="clip133">
    <rect x="2988" y="47" width="2566" height="1852"/>
  </clipPath>
</defs>
<polyline clip-path="url(#clip133)" style="stroke:#000000; stroke-linecap:butt; stroke-linejoin:round; stroke-width:2; stroke-opacity:0.1; fill:none" points="
  3168.78,1898.49 3168.78,47.2441 
  "/>
<polyline clip-path="url(#clip133)" style="stroke:#000000; stroke-linecap:butt; stroke-linejoin:round; stroke-width:2; stroke-opacity:0.1; fill:none" points="
  3655.13,1898.49 3655.13,47.2441 
  "/>
<polyline clip-path="url(#clip133)" style="stroke:#000000; stroke-linecap:butt; stroke-linejoin:round; stroke-width:2; stroke-opacity:0.1; fill:none" points="
  4141.47,1898.49 4141.47,47.2441 
  "/>
<polyline clip-path="url(#clip133)" style="stroke:#000000; stroke-linecap:butt; stroke-linejoin:round; stroke-width:2; stroke-opacity:0.1; fill:none" points="
  4627.82,1898.49 4627.82,47.2441 
  "/>
<polyline clip-path="url(#clip133)" style="stroke:#000000; stroke-linecap:butt; stroke-linejoin:round; stroke-width:2; stroke-opacity:0.1; fill:none" points="
  5114.16,1898.49 5114.16,47.2441 
  "/>
<polyline clip-path="url(#clip130)" style="stroke:#000000; stroke-linecap:butt; stroke-linejoin:round; stroke-width:4; stroke-opacity:1; fill:none" points="
  2988.11,1898.49 5552.76,1898.49 
  "/>
<polyline clip-path="url(#clip130)" style="stroke:#000000; stroke-linecap:butt; stroke-linejoin:round; stroke-width:4; stroke-opacity:1; fill:none" points="
  3168.78,1898.49 3168.78,1876.28 
  "/>
<polyline clip-path="url(#clip130)" style="stroke:#000000; stroke-linecap:butt; stroke-linejoin:round; stroke-width:4; stroke-opacity:1; fill:none" points="
  3655.13,1898.49 3655.13,1876.28 
  "/>
<polyline clip-path="url(#clip130)" style="stroke:#000000; stroke-linecap:butt; stroke-linejoin:round; stroke-width:4; stroke-opacity:1; fill:none" points="
  4141.47,1898.49 4141.47,1876.28 
  "/>
<polyline clip-path="url(#clip130)" style="stroke:#000000; stroke-linecap:butt; stroke-linejoin:round; stroke-width:4; stroke-opacity:1; fill:none" points="
  4627.82,1898.49 4627.82,1876.28 
  "/>
<polyline clip-path="url(#clip130)" style="stroke:#000000; stroke-linecap:butt; stroke-linejoin:round; stroke-width:4; stroke-opacity:1; fill:none" points="
  5114.16,1898.49 5114.16,1876.28 
  "/>
<path clip-path="url(#clip130)" d="M3115.31 1967.94 L3144.98 1967.94 L3144.98 1971.87 L3115.31 1971.87 L3115.31 1967.94 Z" fill="#000000" fill-rule="evenodd" fill-opacity="1" /><path clip-path="url(#clip130)" d="M3155.12 1950.21 L3173.48 1950.21 L3173.48 1954.14 L3159.4 1954.14 L3159.4 1962.61 Q3160.42 1962.27 3161.44 1962.1 Q3162.46 1961.92 3163.48 1961.92 Q3169.27 1961.92 3172.64 1965.09 Q3176.02 1968.26 3176.02 1973.68 Q3176.02 1979.26 3172.55 1982.36 Q3169.08 1985.44 3162.76 1985.44 Q3160.58 1985.44 3158.32 1985.07 Q3156.07 1984.7 3153.66 1983.96 L3153.66 1979.26 Q3155.75 1980.39 3157.97 1980.95 Q3160.19 1981.5 3162.67 1981.5 Q3166.67 1981.5 3169.01 1979.4 Q3171.35 1977.29 3171.35 1973.68 Q3171.35 1970.07 3169.01 1967.96 Q3166.67 1965.85 3162.67 1965.85 Q3160.79 1965.85 3158.92 1966.27 Q3157.07 1966.69 3155.12 1967.57 L3155.12 1950.21 Z" fill="#000000" fill-rule="evenodd" fill-opacity="1" /><path clip-path="url(#clip130)" d="M3185.24 1978.89 L3190.12 1978.89 L3190.12 1984.77 L3185.24 1984.77 L3185.24 1978.89 Z" fill="#000000" fill-rule="evenodd" fill-opacity="1" /><path clip-path="url(#clip130)" d="M3210.31 1953.28 Q3206.7 1953.28 3204.87 1956.85 Q3203.06 1960.39 3203.06 1967.52 Q3203.06 1974.63 3204.87 1978.19 Q3206.7 1981.73 3210.31 1981.73 Q3213.94 1981.73 3215.75 1978.19 Q3217.58 1974.63 3217.58 1967.52 Q3217.58 1960.39 3215.75 1956.85 Q3213.94 1953.28 3210.31 1953.28 M3210.31 1949.58 Q3216.12 1949.58 3219.17 1954.19 Q3222.25 1958.77 3222.25 1967.52 Q3222.25 1976.25 3219.17 1980.85 Q3216.12 1985.44 3210.31 1985.44 Q3204.5 1985.44 3201.42 1980.85 Q3198.36 1976.25 3198.36 1967.52 Q3198.36 1958.77 3201.42 1954.19 Q3204.5 1949.58 3210.31 1949.58 Z" fill="#000000" fill-rule="evenodd" fill-opacity="1" /><path clip-path="url(#clip130)" d="M3602.15 1967.94 L3631.83 1967.94 L3631.83 1971.87 L3602.15 1971.87 L3602.15 1967.94 Z" fill="#000000" fill-rule="evenodd" fill-opacity="1" /><path clip-path="url(#clip130)" d="M3645.95 1980.83 L3662.27 1980.83 L3662.27 1984.77 L3640.32 1984.77 L3640.32 1980.83 Q3642.98 1978.08 3647.57 1973.45 Q3652.17 1968.79 3653.35 1967.45 Q3655.6 1964.93 3656.48 1963.19 Q3657.38 1961.43 3657.38 1959.74 Q3657.38 1956.99 3655.44 1955.25 Q3653.52 1953.52 3650.41 1953.52 Q3648.22 1953.52 3645.76 1954.28 Q3643.33 1955.04 3640.55 1956.59 L3640.55 1951.87 Q3643.38 1950.74 3645.83 1950.16 Q3648.28 1949.58 3650.32 1949.58 Q3655.69 1949.58 3658.89 1952.27 Q3662.08 1954.95 3662.08 1959.44 Q3662.08 1961.57 3661.27 1963.49 Q3660.48 1965.39 3658.38 1967.98 Q3657.8 1968.65 3654.7 1971.87 Q3651.6 1975.07 3645.95 1980.83 Z" fill="#000000" fill-rule="evenodd" fill-opacity="1" /><path clip-path="url(#clip130)" d="M3672.08 1978.89 L3676.97 1978.89 L3676.97 1984.77 L3672.08 1984.77 L3672.08 1978.89 Z" fill="#000000" fill-rule="evenodd" fill-opacity="1" /><path clip-path="url(#clip130)" d="M3687.2 1950.21 L3705.55 1950.21 L3705.55 1954.14 L3691.48 1954.14 L3691.48 1962.61 Q3692.5 1962.27 3693.52 1962.1 Q3694.53 1961.92 3695.55 1961.92 Q3701.34 1961.92 3704.72 1965.09 Q3708.1 1968.26 3708.1 1973.68 Q3708.1 1979.26 3704.63 1982.36 Q3701.15 1985.44 3694.84 1985.44 Q3692.66 1985.44 3690.39 1985.07 Q3688.15 1984.7 3685.74 1983.96 L3685.74 1979.26 Q3687.82 1980.39 3690.04 1980.95 Q3692.27 1981.5 3694.74 1981.5 Q3698.75 1981.5 3701.09 1979.4 Q3703.42 1977.29 3703.42 1973.68 Q3703.42 1970.07 3701.09 1967.96 Q3698.75 1965.85 3694.74 1965.85 Q3692.87 1965.85 3690.99 1966.27 Q3689.14 1966.69 3687.2 1967.57 L3687.2 1950.21 Z" fill="#000000" fill-rule="evenodd" fill-opacity="1" /><path clip-path="url(#clip130)" d="M4118.86 1953.28 Q4115.24 1953.28 4113.42 1956.85 Q4111.61 1960.39 4111.61 1967.52 Q4111.61 1974.63 4113.42 1978.19 Q4115.24 1981.73 4118.86 1981.73 Q4122.49 1981.73 4124.3 1978.19 Q4126.12 1974.63 4126.12 1967.52 Q4126.12 1960.39 4124.3 1956.85 Q4122.49 1953.28 4118.86 1953.28 M4118.86 1949.58 Q4124.67 1949.58 4127.72 1954.19 Q4130.8 1958.77 4130.8 1967.52 Q4130.8 1976.25 4127.72 1980.85 Q4124.67 1985.44 4118.86 1985.44 Q4113.05 1985.44 4109.97 1980.85 Q4106.91 1976.25 4106.91 1967.52 Q4106.91 1958.77 4109.97 1954.19 Q4113.05 1949.58 4118.86 1949.58 Z" fill="#000000" fill-rule="evenodd" fill-opacity="1" /><path clip-path="url(#clip130)" d="M4139.02 1978.89 L4143.9 1978.89 L4143.9 1984.77 L4139.02 1984.77 L4139.02 1978.89 Z" fill="#000000" fill-rule="evenodd" fill-opacity="1" /><path clip-path="url(#clip130)" d="M4164.09 1953.28 Q4160.48 1953.28 4158.65 1956.85 Q4156.84 1960.39 4156.84 1967.52 Q4156.84 1974.63 4158.65 1978.19 Q4160.48 1981.73 4164.09 1981.73 Q4167.72 1981.73 4169.53 1978.19 Q4171.36 1974.63 4171.36 1967.52 Q4171.36 1960.39 4169.53 1956.85 Q4167.72 1953.28 4164.09 1953.28 M4164.09 1949.58 Q4169.9 1949.58 4172.95 1954.19 Q4176.03 1958.77 4176.03 1967.52 Q4176.03 1976.25 4172.95 1980.85 Q4169.9 1985.44 4164.09 1985.44 Q4158.28 1985.44 4155.2 1980.85 Q4152.14 1976.25 4152.14 1967.52 Q4152.14 1958.77 4155.2 1954.19 Q4158.28 1949.58 4164.09 1949.58 Z" fill="#000000" fill-rule="evenodd" fill-opacity="1" /><path clip-path="url(#clip130)" d="M4599.55 1980.83 L4615.87 1980.83 L4615.87 1984.77 L4593.93 1984.77 L4593.93 1980.83 Q4596.59 1978.08 4601.17 1973.45 Q4605.78 1968.79 4606.96 1967.45 Q4609.21 1964.93 4610.09 1963.19 Q4610.99 1961.43 4610.99 1959.74 Q4610.99 1956.99 4609.04 1955.25 Q4607.12 1953.52 4604.02 1953.52 Q4601.82 1953.52 4599.37 1954.28 Q4596.94 1955.04 4594.16 1956.59 L4594.16 1951.87 Q4596.98 1950.74 4599.44 1950.16 Q4601.89 1949.58 4603.93 1949.58 Q4609.3 1949.58 4612.49 1952.27 Q4615.69 1954.95 4615.69 1959.44 Q4615.69 1961.57 4614.88 1963.49 Q4614.09 1965.39 4611.98 1967.98 Q4611.41 1968.65 4608.3 1971.87 Q4605.2 1975.07 4599.55 1980.83 Z" fill="#000000" fill-rule="evenodd" fill-opacity="1" /><path clip-path="url(#clip130)" d="M4625.69 1978.89 L4630.57 1978.89 L4630.57 1984.77 L4625.69 1984.77 L4625.69 1978.89 Z" fill="#000000" fill-rule="evenodd" fill-opacity="1" /><path clip-path="url(#clip130)" d="M4640.8 1950.21 L4659.16 1950.21 L4659.16 1954.14 L4645.09 1954.14 L4645.09 1962.61 Q4646.1 1962.27 4647.12 1962.1 Q4648.14 1961.92 4649.16 1961.92 Q4654.95 1961.92 4658.33 1965.09 Q4661.71 1968.26 4661.71 1973.68 Q4661.71 1979.26 4658.23 1982.36 Q4654.76 1985.44 4648.44 1985.44 Q4646.27 1985.44 4644 1985.07 Q4641.75 1984.7 4639.34 1983.96 L4639.34 1979.26 Q4641.43 1980.39 4643.65 1980.95 Q4645.87 1981.5 4648.35 1981.5 Q4652.35 1981.5 4654.69 1979.4 Q4657.03 1977.29 4657.03 1973.68 Q4657.03 1970.07 4654.69 1967.96 Q4652.35 1965.85 4648.35 1965.85 Q4646.47 1965.85 4644.6 1966.27 Q4642.75 1966.69 4640.8 1967.57 L4640.8 1950.21 Z" fill="#000000" fill-rule="evenodd" fill-opacity="1" /><path clip-path="url(#clip130)" d="M5081.33 1950.21 L5099.68 1950.21 L5099.68 1954.14 L5085.61 1954.14 L5085.61 1962.61 Q5086.63 1962.27 5087.65 1962.1 Q5088.67 1961.92 5089.68 1961.92 Q5095.47 1961.92 5098.85 1965.09 Q5102.23 1968.26 5102.23 1973.68 Q5102.23 1979.26 5098.76 1982.36 Q5095.29 1985.44 5088.97 1985.44 Q5086.79 1985.44 5084.52 1985.07 Q5082.28 1984.7 5079.87 1983.96 L5079.87 1979.26 Q5081.95 1980.39 5084.18 1980.95 Q5086.4 1981.5 5088.87 1981.5 Q5092.88 1981.5 5095.22 1979.4 Q5097.55 1977.29 5097.55 1973.68 Q5097.55 1970.07 5095.22 1967.96 Q5092.88 1965.85 5088.87 1965.85 Q5087 1965.85 5085.12 1966.27 Q5083.27 1966.69 5081.33 1967.57 L5081.33 1950.21 Z" fill="#000000" fill-rule="evenodd" fill-opacity="1" /><path clip-path="url(#clip130)" d="M5111.44 1978.89 L5116.33 1978.89 L5116.33 1984.77 L5111.44 1984.77 L5111.44 1978.89 Z" fill="#000000" fill-rule="evenodd" fill-opacity="1" /><path clip-path="url(#clip130)" d="M5136.51 1953.28 Q5132.9 1953.28 5131.07 1956.85 Q5129.27 1960.39 5129.27 1967.52 Q5129.27 1974.63 5131.07 1978.19 Q5132.9 1981.73 5136.51 1981.73 Q5140.15 1981.73 5141.95 1978.19 Q5143.78 1974.63 5143.78 1967.52 Q5143.78 1960.39 5141.95 1956.85 Q5140.15 1953.28 5136.51 1953.28 M5136.51 1949.58 Q5142.32 1949.58 5145.38 1954.19 Q5148.46 1958.77 5148.46 1967.52 Q5148.46 1976.25 5145.38 1980.85 Q5142.32 1985.44 5136.51 1985.44 Q5130.7 1985.44 5127.62 1980.85 Q5124.57 1976.25 5124.57 1967.52 Q5124.57 1958.77 5127.62 1954.19 Q5130.7 1949.58 5136.51 1949.58 Z" fill="#000000" fill-rule="evenodd" fill-opacity="1" /><polyline clip-path="url(#clip133)" style="stroke:#000000; stroke-linecap:butt; stroke-linejoin:round; stroke-width:2; stroke-opacity:0.1; fill:none" points="
  2988.11,1846.1 5552.76,1846.1 
  "/>
<polyline clip-path="url(#clip133)" style="stroke:#000000; stroke-linecap:butt; stroke-linejoin:round; stroke-width:2; stroke-opacity:0.1; fill:none" points="
  2988.11,1445.94 5552.76,1445.94 
  "/>
<polyline clip-path="url(#clip133)" style="stroke:#000000; stroke-linecap:butt; stroke-linejoin:round; stroke-width:2; stroke-opacity:0.1; fill:none" points="
  2988.11,1045.78 5552.76,1045.78 
  "/>
<polyline clip-path="url(#clip133)" style="stroke:#000000; stroke-linecap:butt; stroke-linejoin:round; stroke-width:2; stroke-opacity:0.1; fill:none" points="
  2988.11,645.613 5552.76,645.613 
  "/>
<polyline clip-path="url(#clip133)" style="stroke:#000000; stroke-linecap:butt; stroke-linejoin:round; stroke-width:2; stroke-opacity:0.1; fill:none" points="
  2988.11,245.451 5552.76,245.451 
  "/>
<polyline clip-path="url(#clip130)" style="stroke:#000000; stroke-linecap:butt; stroke-linejoin:round; stroke-width:4; stroke-opacity:1; fill:none" points="
  2988.11,1898.49 2988.11,47.2441 
  "/>
<polyline clip-path="url(#clip130)" style="stroke:#000000; stroke-linecap:butt; stroke-linejoin:round; stroke-width:4; stroke-opacity:1; fill:none" points="
  2988.11,1846.1 3018.89,1846.1 
  "/>
<polyline clip-path="url(#clip130)" style="stroke:#000000; stroke-linecap:butt; stroke-linejoin:round; stroke-width:4; stroke-opacity:1; fill:none" points="
  2988.11,1445.94 3018.89,1445.94 
  "/>
<polyline clip-path="url(#clip130)" style="stroke:#000000; stroke-linecap:butt; stroke-linejoin:round; stroke-width:4; stroke-opacity:1; fill:none" points="
  2988.11,1045.78 3018.89,1045.78 
  "/>
<polyline clip-path="url(#clip130)" style="stroke:#000000; stroke-linecap:butt; stroke-linejoin:round; stroke-width:4; stroke-opacity:1; fill:none" points="
  2988.11,645.613 3018.89,645.613 
  "/>
<polyline clip-path="url(#clip130)" style="stroke:#000000; stroke-linecap:butt; stroke-linejoin:round; stroke-width:4; stroke-opacity:1; fill:none" points="
  2988.11,245.451 3018.89,245.451 
  "/>
<path clip-path="url(#clip130)" d="M2846.94 1831.9 Q2843.33 1831.9 2841.5 1835.46 Q2839.69 1839 2839.69 1846.13 Q2839.69 1853.24 2841.5 1856.81 Q2843.33 1860.35 2846.94 1860.35 Q2850.57 1860.35 2852.38 1856.81 Q2854.2 1853.24 2854.2 1846.13 Q2854.2 1839 2852.38 1835.46 Q2850.57 1831.9 2846.94 1831.9 M2846.94 1828.19 Q2852.75 1828.19 2855.8 1832.8 Q2858.88 1837.38 2858.88 1846.13 Q2858.88 1854.86 2855.8 1859.47 Q2852.75 1864.05 2846.94 1864.05 Q2841.13 1864.05 2838.05 1859.47 Q2834.99 1854.86 2834.99 1846.13 Q2834.99 1837.38 2838.05 1832.8 Q2841.13 1828.19 2846.94 1828.19 Z" fill="#000000" fill-rule="evenodd" fill-opacity="1" /><path clip-path="url(#clip130)" d="M2867.1 1857.5 L2871.98 1857.5 L2871.98 1863.38 L2867.1 1863.38 L2867.1 1857.5 Z" fill="#000000" fill-rule="evenodd" fill-opacity="1" /><path clip-path="url(#clip130)" d="M2892.17 1831.9 Q2888.56 1831.9 2886.73 1835.46 Q2884.92 1839 2884.92 1846.13 Q2884.92 1853.24 2886.73 1856.81 Q2888.56 1860.35 2892.17 1860.35 Q2895.8 1860.35 2897.61 1856.81 Q2899.44 1853.24 2899.44 1846.13 Q2899.44 1839 2897.61 1835.46 Q2895.8 1831.9 2892.17 1831.9 M2892.17 1828.19 Q2897.98 1828.19 2901.03 1832.8 Q2904.11 1837.38 2904.11 1846.13 Q2904.11 1854.86 2901.03 1859.47 Q2897.98 1864.05 2892.17 1864.05 Q2886.36 1864.05 2883.28 1859.47 Q2880.22 1854.86 2880.22 1846.13 Q2880.22 1837.38 2883.28 1832.8 Q2886.36 1828.19 2892.17 1828.19 Z" fill="#000000" fill-rule="evenodd" fill-opacity="1" /><path clip-path="url(#clip130)" d="M2847.93 1431.74 Q2844.32 1431.74 2842.49 1435.3 Q2840.69 1438.84 2840.69 1445.97 Q2840.69 1453.08 2842.49 1456.64 Q2844.32 1460.19 2847.93 1460.19 Q2851.57 1460.19 2853.37 1456.64 Q2855.2 1453.08 2855.2 1445.97 Q2855.2 1438.84 2853.37 1435.3 Q2851.57 1431.74 2847.93 1431.74 M2847.93 1428.03 Q2853.74 1428.03 2856.8 1432.64 Q2859.88 1437.22 2859.88 1445.97 Q2859.88 1454.7 2856.8 1459.31 Q2853.74 1463.89 2847.93 1463.89 Q2842.12 1463.89 2839.04 1459.31 Q2835.99 1454.7 2835.99 1445.97 Q2835.99 1437.22 2839.04 1432.64 Q2842.12 1428.03 2847.93 1428.03 Z" fill="#000000" fill-rule="evenodd" fill-opacity="1" /><path clip-path="url(#clip130)" d="M2868.09 1457.34 L2872.98 1457.34 L2872.98 1463.22 L2868.09 1463.22 L2868.09 1457.34 Z" fill="#000000" fill-rule="evenodd" fill-opacity="1" /><path clip-path="url(#clip130)" d="M2883.21 1428.66 L2901.57 1428.66 L2901.57 1432.59 L2887.49 1432.59 L2887.49 1441.06 Q2888.51 1440.72 2889.53 1440.56 Q2890.55 1440.37 2891.57 1440.37 Q2897.35 1440.37 2900.73 1443.54 Q2904.11 1446.71 2904.11 1452.13 Q2904.11 1457.71 2900.64 1460.81 Q2897.17 1463.89 2890.85 1463.89 Q2888.67 1463.89 2886.4 1463.52 Q2884.16 1463.15 2881.75 1462.41 L2881.75 1457.71 Q2883.83 1458.84 2886.06 1459.4 Q2888.28 1459.95 2890.76 1459.95 Q2894.76 1459.95 2897.1 1457.85 Q2899.44 1455.74 2899.44 1452.13 Q2899.44 1448.52 2897.1 1446.41 Q2894.76 1444.31 2890.76 1444.31 Q2888.88 1444.31 2887.01 1444.72 Q2885.15 1445.14 2883.21 1446.02 L2883.21 1428.66 Z" fill="#000000" fill-rule="evenodd" fill-opacity="1" /><path clip-path="url(#clip130)" d="M2837.75 1059.12 L2845.39 1059.12 L2845.39 1032.75 L2837.08 1034.42 L2837.08 1030.16 L2845.34 1028.5 L2850.02 1028.5 L2850.02 1059.12 L2857.65 1059.12 L2857.65 1063.06 L2837.75 1063.06 L2837.75 1059.12 Z" fill="#000000" fill-rule="evenodd" fill-opacity="1" /><path clip-path="url(#clip130)" d="M2867.1 1057.18 L2871.98 1057.18 L2871.98 1063.06 L2867.1 1063.06 L2867.1 1057.18 Z" fill="#000000" fill-rule="evenodd" fill-opacity="1" /><path clip-path="url(#clip130)" d="M2892.17 1031.57 Q2888.56 1031.57 2886.73 1035.14 Q2884.92 1038.68 2884.92 1045.81 Q2884.92 1052.92 2886.73 1056.48 Q2888.56 1060.02 2892.17 1060.02 Q2895.8 1060.02 2897.61 1056.48 Q2899.44 1052.92 2899.44 1045.81 Q2899.44 1038.68 2897.61 1035.14 Q2895.8 1031.57 2892.17 1031.57 M2892.17 1027.87 Q2897.98 1027.87 2901.03 1032.48 Q2904.11 1037.06 2904.11 1045.81 Q2904.11 1054.54 2901.03 1059.14 Q2897.98 1063.73 2892.17 1063.73 Q2886.36 1063.73 2883.28 1059.14 Q2880.22 1054.54 2880.22 1045.81 Q2880.22 1037.06 2883.28 1032.48 Q2886.36 1027.87 2892.17 1027.87 Z" fill="#000000" fill-rule="evenodd" fill-opacity="1" /><path clip-path="url(#clip130)" d="M2838.74 658.958 L2846.38 658.958 L2846.38 632.593 L2838.07 634.259 L2838.07 630 L2846.33 628.333 L2851.01 628.333 L2851.01 658.958 L2858.65 658.958 L2858.65 662.893 L2838.74 662.893 L2838.74 658.958 Z" fill="#000000" fill-rule="evenodd" fill-opacity="1" /><path clip-path="url(#clip130)" d="M2868.09 657.014 L2872.98 657.014 L2872.98 662.893 L2868.09 662.893 L2868.09 657.014 Z" fill="#000000" fill-rule="evenodd" fill-opacity="1" /><path clip-path="url(#clip130)" d="M2883.21 628.333 L2901.57 628.333 L2901.57 632.269 L2887.49 632.269 L2887.49 640.741 Q2888.51 640.393 2889.53 640.231 Q2890.55 640.046 2891.57 640.046 Q2897.35 640.046 2900.73 643.218 Q2904.11 646.389 2904.11 651.805 Q2904.11 657.384 2900.64 660.486 Q2897.17 663.565 2890.85 663.565 Q2888.67 663.565 2886.4 663.194 Q2884.16 662.824 2881.75 662.083 L2881.75 657.384 Q2883.83 658.518 2886.06 659.074 Q2888.28 659.629 2890.76 659.629 Q2894.76 659.629 2897.1 657.523 Q2899.44 655.417 2899.44 651.805 Q2899.44 648.194 2897.1 646.088 Q2894.76 643.981 2890.76 643.981 Q2888.88 643.981 2887.01 644.398 Q2885.15 644.815 2883.21 645.694 L2883.21 628.333 Z" fill="#000000" fill-rule="evenodd" fill-opacity="1" /><path clip-path="url(#clip130)" d="M2840.96 258.796 L2857.28 258.796 L2857.28 262.731 L2835.34 262.731 L2835.34 258.796 Q2838 256.041 2842.58 251.412 Q2847.19 246.759 2848.37 245.417 Q2850.62 242.893 2851.5 241.157 Q2852.4 239.398 2852.4 237.708 Q2852.4 234.954 2850.46 233.218 Q2848.53 231.481 2845.43 231.481 Q2843.23 231.481 2840.78 232.245 Q2838.35 233.009 2835.57 234.56 L2835.57 229.838 Q2838.39 228.704 2840.85 228.125 Q2843.3 227.546 2845.34 227.546 Q2850.71 227.546 2853.9 230.231 Q2857.1 232.917 2857.1 237.407 Q2857.1 239.537 2856.29 241.458 Q2855.5 243.356 2853.39 245.949 Q2852.82 246.62 2849.71 249.838 Q2846.61 253.032 2840.96 258.796 Z" fill="#000000" fill-rule="evenodd" fill-opacity="1" /><path clip-path="url(#clip130)" d="M2867.1 256.852 L2871.98 256.852 L2871.98 262.731 L2867.1 262.731 L2867.1 256.852 Z" fill="#000000" fill-rule="evenodd" fill-opacity="1" /><path clip-path="url(#clip130)" d="M2892.17 231.25 Q2888.56 231.25 2886.73 234.815 Q2884.92 238.356 2884.92 245.486 Q2884.92 252.592 2886.73 256.157 Q2888.56 259.699 2892.17 259.699 Q2895.8 259.699 2897.61 256.157 Q2899.44 252.592 2899.44 245.486 Q2899.44 238.356 2897.61 234.815 Q2895.8 231.25 2892.17 231.25 M2892.17 227.546 Q2897.98 227.546 2901.03 232.153 Q2904.11 236.736 2904.11 245.486 Q2904.11 254.213 2901.03 258.819 Q2897.98 263.403 2892.17 263.403 Q2886.36 263.403 2883.28 258.819 Q2880.22 254.213 2880.22 245.486 Q2880.22 236.736 2883.28 232.153 Q2886.36 227.546 2892.17 227.546 Z" fill="#000000" fill-rule="evenodd" fill-opacity="1" /><polyline clip-path="url(#clip133)" style="stroke:#ff0000; stroke-linecap:butt; stroke-linejoin:round; stroke-width:16; stroke-opacity:1; fill:none" points="
  3060.7,1846.09 3072.85,1846.01 3085.01,1846.07 3097.17,1846.09 3109.33,1846 3121.49,1846.08 3133.65,1846.1 3145.8,1846.1 3157.96,1846.05 3170.12,1846.03 
  3182.28,1846.09 3194.44,1846.1 3206.59,1846.1 3218.75,1846.09 3230.91,1846.01 3243.07,1846.06 3255.23,1846.01 3267.39,1846.06 3279.54,1846.1 3291.7,1846.1 
  3303.86,1846.1 3316.02,1846.08 3328.18,1846 3340.33,1845.98 3352.49,1845.85 3364.65,1845.96 3376.81,1846.09 3388.97,1846.02 3401.13,1846.06 3413.28,1846.1 
  3425.44,1846.01 3437.6,1845.81 3449.76,1845.91 3461.92,1845.87 3474.07,1845.96 3486.23,1845.99 3498.39,1845.89 3510.55,1845.97 3522.71,1845.99 3534.86,1845.88 
  3547.02,1845.93 3559.18,1845.77 3571.34,1845.95 3583.5,1845.95 3595.66,1845.83 3607.81,1845.55 3619.97,1845.35 3632.13,1845.37 3644.29,1845.12 3656.45,1845.1 
  3668.6,1845.56 3680.76,1845.35 3692.92,1845.02 3705.08,1844.91 3717.24,1844.4 3729.4,1843.97 3741.55,1844.12 3753.71,1844.76 3765.87,1844.01 3778.03,1843.88 
  3790.19,1843.06 3802.34,1842.5 3814.5,1841.95 3826.66,1840.78 3838.82,1840.37 3850.98,1840.21 3863.14,1839.39 3875.29,1836.4 3887.45,1836.9 3899.61,1833.66 
  3911.77,1830.27 3923.93,1826.56 3936.08,1823.3 3948.24,1818.53 3960.4,1815.63 3972.56,1808.91 3984.72,1800.05 3996.88,1787.44 4009.03,1769.06 4021.19,1745.96 
  4033.35,1723.43 4045.51,1683.64 4057.67,1630.84 4069.82,1560.7 4081.98,1458.71 4094.14,1297.74 4106.3,1060.37 4118.46,730.305 4130.62,296.184 4142.77,99.6379 
  4154.93,396.216 4167.09,809.67 4179.25,1121.64 4191.41,1319.62 4203.56,1475.19 4215.72,1569.44 4227.88,1637.96 4240.04,1688.49 4252.2,1726.07 4264.35,1755.53 
  4276.51,1773.62 4288.67,1793.2 4300.83,1800.11 4312.99,1807.45 4325.15,1814.48 4337.3,1821.74 4349.46,1826.37 4361.62,1829.71 4373.78,1832.86 4385.94,1835.43 
  4398.09,1836.92 4410.25,1838.07 4422.41,1838 4434.57,1841.09 4446.73,1841.22 4458.89,1841.22 4471.04,1842.46 4483.2,1842.92 4495.36,1843.02 4507.52,1843.08 
  4519.68,1843.53 4531.83,1844.24 4543.99,1844.37 4556.15,1844.12 4568.31,1844.7 4580.47,1844.49 4592.63,1845.31 4604.78,1845.47 4616.94,1845.37 4629.1,1845.48 
  4641.26,1845.3 4653.42,1845.06 4665.57,1845.52 4677.73,1845.98 4689.89,1845.63 4702.05,1845.91 4714.21,1845.79 4726.37,1845.62 4738.52,1845.9 4750.68,1845.7 
  4762.84,1845.7 4775,1845.67 4787.16,1845.92 4799.31,1845.91 4811.47,1845.85 4823.63,1845.96 4835.79,1845.98 4847.95,1846.09 4860.11,1845.98 4872.26,1845.95 
  4884.42,1845.94 4896.58,1845.91 4908.74,1845.95 4920.9,1846.03 4933.05,1846.04 4945.21,1846.06 4957.37,1846.01 4969.53,1846.02 4981.69,1846.05 4993.84,1846.1 
  5006,1846.09 5018.16,1846.01 5030.32,1846.07 5042.48,1846.1 5054.64,1846.1 5066.79,1846.1 5078.95,1846.1 5091.11,1846.1 5103.27,1846.1 5115.43,1846.1 
  5127.58,1846.1 5139.74,1846.1 5151.9,1846.1 5164.06,1846.1 5176.22,1846.1 5188.38,1846.1 5200.53,1846.1 5212.69,1846.1 5224.85,1846.1 5237.01,1846.1 
  5249.17,1846.1 5261.32,1846.1 5273.48,1846.1 5285.64,1846.1 5297.8,1846.1 5309.96,1846.1 5322.12,1846.1 5334.27,1846.04 5346.43,1846.04 5358.59,1846.1 
  5370.75,1846.1 5382.91,1846.1 5395.06,1846.1 5407.22,1846.1 5419.38,1846.1 5431.54,1846.1 5443.7,1846.1 5455.86,1846.07 5468.01,1846.01 5480.17,1846.09 
  
  "/>
</svg>
